<svg version="1.1" id="Layer_1" xmlns="http://www.w3.org/2000/svg" xmlns:xlink="http://www.w3.org/1999/xlink" x="0px" y="0px"
	 width="100%" viewBox="0 0 76 90" enable-background="new 0 0 76 90" xml:space="preserve">
<path fill="#FFFFFF" opacity="1.000000" stroke="none" 
	d="
M77.000000,49.000000 
	C77.000000,62.910618 77.000000,76.821236 77.000000,91.000000 
	C68.314278,91.000000 59.625801,91.000000 50.468662,90.553894 
	C49.686649,87.169693 49.188904,84.234383 49.144497,81.292229 
	C49.124855,79.990837 49.810181,78.509026 50.627586,77.462112 
	C50.893169,77.121964 52.823299,77.613716 53.594749,78.225769 
	C55.736485,79.924995 57.580288,81.583420 60.601734,79.731041 
	C63.668541,77.850853 65.505371,75.776222 65.079781,71.806358 
	C64.474808,66.163300 64.293961,60.462799 64.232460,54.783588 
	C64.220192,53.650497 65.334595,51.802162 66.315193,51.488159 
	C69.786446,50.376614 73.424911,49.787270 77.000000,49.000000 
z"/>
<path fill="#FEFFFE" opacity="1.000000" stroke="none" 
	d="
M1.000000,29.000000 
	C1.000000,19.747517 1.000000,10.495035 1.000000,1.000000 
	C8.352405,1.000000 15.707466,1.000000 23.522966,1.404382 
	C23.372589,6.148600 22.674757,10.323530 18.538141,13.112821 
	C16.707703,14.347075 15.922603,16.403143 19.243402,17.366220 
	C19.173668,17.585148 18.990665,18.006668 18.750530,18.087605 
	C18.409132,18.469149 18.307871,18.769756 18.113997,19.495371 
	C18.104393,21.945927 18.187407,23.971472 18.158195,26.378899 
	C17.970823,27.816502 17.895678,28.872225 17.595699,29.934631 
	C17.370871,29.941315 16.924202,29.994783 16.783417,30.066671 
	C16.642632,30.138559 16.457350,30.514751 16.457350,30.514751 
	C16.457350,30.514751 16.718353,30.855679 16.880671,30.931324 
	C17.042988,31.006969 17.392744,31.084072 17.494469,31.219608 
	C17.596195,31.355145 17.928604,31.421289 17.604572,31.492718 
	C16.856312,31.682156 16.432083,31.800165 15.627213,31.808594 
	C13.163244,31.514896 11.079921,31.330778 8.962229,30.773102 
	C7.067744,25.500454 3.499763,30.275745 1.000000,29.000000 
z"/>
<path fill="#FDFEFD" opacity="1.000000" stroke="none" 
	d="
M77.000000,48.625000 
	C73.424911,49.787270 69.786446,50.376614 66.315193,51.488159 
	C65.334595,51.802162 64.220192,53.650497 64.232460,54.783588 
	C64.293961,60.462799 64.474808,66.163300 65.079781,71.806358 
	C65.505371,75.776222 63.668541,77.850853 60.601734,79.731041 
	C57.580288,81.583420 55.736485,79.924995 53.594749,78.225769 
	C52.823299,77.613716 50.893169,77.121964 50.627586,77.462112 
	C49.810181,78.509026 49.124855,79.990837 49.144497,81.292229 
	C49.188904,84.234383 49.686649,87.169693 50.000000,90.553894 
	C47.958332,91.000000 45.916668,91.000000 43.437584,90.680420 
	C43.001858,89.721664 43.003544,89.082504 43.279442,88.314476 
	C44.101643,87.954979 44.649635,87.724350 45.505058,87.179642 
	C45.899761,84.577560 45.987030,82.289536 46.135948,79.623619 
	C46.127625,78.486801 46.057655,77.727875 46.046772,76.657242 
	C46.131512,75.711800 46.157173,75.078072 46.599571,74.339188 
	C49.011845,74.104782 51.007381,73.975517 53.420181,73.954453 
	C55.544853,73.962967 57.252262,73.863281 59.355587,73.605644 
	C59.868877,69.267639 59.986252,65.087585 60.193920,60.620506 
	C60.223820,59.941608 60.163422,59.549732 60.219139,58.715801 
	C60.273735,56.182831 60.212212,54.091911 60.252785,51.586693 
	C60.522724,49.785305 60.690559,48.398216 60.853252,47.028683 
	C60.848110,47.046234 60.888496,47.046860 61.039101,47.194973 
	C61.459545,46.972832 61.729389,46.602573 62.381935,46.128742 
	C64.567368,45.856834 66.370094,45.688499 68.234627,45.507343 
	C68.296425,45.494522 68.406929,45.433510 68.721977,45.594688 
	C69.728600,45.709530 70.420166,45.663200 71.427719,45.748138 
	C72.425209,45.841030 73.106712,45.802654 74.075317,45.843689 
	C74.560059,45.942394 74.757706,45.961689 75.296104,45.986401 
	C76.091240,45.994549 76.545616,45.997272 77.000000,46.000000 
	C77.000000,46.750000 77.000000,47.500000 77.000000,48.625000 
z"/>
<path fill="#FBFEFE" opacity="1.000000" stroke="none" 
	d="
M1.000000,29.468658 
	C3.499763,30.275745 7.067744,25.500454 8.632477,30.860638 
	C7.224240,31.538353 6.111386,31.754976 4.716147,32.002880 
	C4.292922,32.358688 4.152080,32.683212 3.920610,33.331062 
	C3.877126,34.096630 3.924268,34.538868 3.865466,35.427834 
	C3.832116,38.921078 3.904711,41.967602 3.907518,45.472168 
	C3.882092,49.950352 3.926454,53.970497 3.895721,58.245045 
	C3.859458,58.671898 3.898290,58.844345 3.881798,59.479324 
	C3.925185,64.620369 4.023896,69.298889 4.029698,74.431473 
	C3.955481,78.587418 3.974174,82.289284 3.946181,86.243256 
	C3.929946,86.663544 3.960397,86.831726 3.954040,87.258621 
	C3.895241,87.690155 3.873251,87.862976 3.495127,88.021042 
	C2.425994,88.004204 1.712997,88.002106 1.000000,88.000000 
	C1.000000,68.645775 1.000000,49.291542 1.000000,29.468658 
z"/>
<path fill="#FDFDFD" opacity="1.000000" stroke="none" 
	d="
M19.313137,17.147293 
	C15.922603,16.403143 16.707703,14.347075 18.538141,13.112821 
	C22.674757,10.323530 23.372589,6.148600 23.991703,1.404382 
	C26.700014,1.000000 29.400026,1.000000 32.549938,1.248134 
	C32.999836,1.496269 32.996628,1.992527 33.002846,2.270952 
	C33.020088,2.734650 33.031113,2.919923 33.001892,3.281076 
	C32.961651,3.456957 32.858028,3.802611 32.558105,4.007561 
	C32.214252,5.145281 32.170322,6.078052 32.068871,7.458196 
	C31.893555,10.602879 31.775766,13.300189 31.417315,16.020741 
	C30.795025,16.308807 30.413399,16.573633 29.678490,16.895954 
	C28.866096,17.075039 28.406988,17.196627 27.511974,17.284168 
	C24.488426,17.215847 21.900782,17.181570 19.313137,17.147293 
z"/>
<path fill="#FBFFFE" opacity="1.000000" stroke="none" 
	d="
M37.000000,91.000000 
	C28.312437,91.000000 19.624874,91.000000 10.468662,90.675751 
	C10.001118,89.705170 10.002221,89.058830 10.439638,88.293259 
	C13.577094,88.111115 16.278236,88.048195 19.238934,88.032318 
	C19.668371,88.034592 19.838251,87.989838 20.463165,88.003143 
	C24.284998,87.971611 27.651796,87.882034 31.439564,87.893661 
	C33.572071,88.156067 35.283611,88.317268 36.998009,88.577431 
	C37.000870,88.676399 37.004311,88.874382 36.819748,89.029434 
	C36.756790,89.789665 36.878395,90.394829 37.000000,91.000000 
z"/>
<path fill="#FBFEFF" opacity="1.000000" stroke="none" 
	d="
M77.000000,7.000000 
	C77.000000,10.362102 77.000000,13.724202 76.690468,17.543221 
	C75.764755,18.005556 75.148575,18.010975 74.470810,17.618530 
	C74.324730,16.148348 74.240242,15.076025 74.219582,13.556765 
	C74.235168,10.406902 74.186928,7.703980 74.161407,4.674539 
	C74.100189,3.920308 74.016258,3.492597 74.177101,3.159212 
	C74.656059,3.508643 74.890259,3.763748 75.107147,4.337342 
	C75.726562,5.437221 76.363281,6.218610 77.000000,7.000000 
z"/>
<path fill="#FEFBFD" opacity="1.000000" stroke="none" 
	d="
M77.000000,32.000000 
	C77.000000,35.030594 77.000000,38.061188 76.724030,41.558388 
	C75.807457,42.349689 75.166855,42.674389 74.453079,42.742981 
	C74.308411,42.324318 74.236908,42.161762 74.268158,41.655006 
	C74.531517,40.864338 74.692123,40.417877 75.087440,39.852745 
	C75.150726,38.278770 74.979301,36.823463 74.662048,34.980331 
	C74.403015,34.051598 74.289810,33.510693 74.255348,32.648018 
	C74.395691,31.889111 74.457283,31.451967 74.672478,31.184708 
	C75.217667,31.569866 75.609253,31.785143 76.250626,32.000317 
	C76.500420,32.000214 77.000000,32.000000 77.000000,32.000000 
z"/>
<path fill="#F8FFFB" opacity="1.000000" stroke="none" 
	d="
M37.428463,91.000000 
	C36.878395,90.394829 36.756790,89.789665 36.987888,89.018799 
	C37.559727,88.778503 37.739849,88.649452 38.295952,88.342957 
	C40.142376,88.294426 41.573803,88.368881 43.005230,88.443329 
	C43.003544,89.082504 43.001858,89.721664 43.000084,90.680420 
	C41.285641,91.000000 39.571285,91.000000 37.428463,91.000000 
z"/>
<path fill="#FDFCFF" opacity="1.000000" stroke="none" 
	d="
M49.000000,1.000000 
	C52.692909,1.000000 56.385818,1.000000 60.539364,1.249708 
	C61.000000,1.499416 60.999756,1.998831 60.750893,2.000278 
	C60.502033,2.001724 60.004383,2.010310 59.663906,2.008102 
	C58.546711,2.343338 57.769989,2.680781 56.569523,3.084918 
	C54.433468,3.106684 52.721161,3.061755 50.844078,2.766560 
	C50.119923,2.341098 49.560539,2.165902 49.000801,1.743030 
	C49.000443,1.495354 49.000000,1.000000 49.000000,1.000000 
z"/>
<path fill="#F8FFFE" opacity="1.000000" stroke="none" 
	d="
M10.003325,88.412491 
	C10.002221,89.058830 10.001118,89.705170 10.000007,90.675751 
	C8.611104,91.000000 7.222208,91.000000 5.416662,90.666382 
	C4.977250,89.666824 4.954489,89.000885 5.348879,88.237640 
	C7.178463,88.231049 8.590894,88.321770 10.003325,88.412491 
z"/>
<path fill="#FDFCFF" opacity="1.000000" stroke="none" 
	d="
M74.532394,18.016394 
	C75.148575,18.010975 75.764755,18.005556 76.690468,18.000069 
	C77.000000,19.388895 77.000000,20.777792 76.750755,22.583092 
	C76.501511,22.999498 76.003021,22.998808 75.719406,23.005173 
	C75.247101,23.024357 75.058411,23.037178 74.700516,23.015984 
	C74.531296,22.981970 74.189758,22.927860 74.251869,22.525793 
	C74.255951,20.774723 74.197922,19.425722 74.244629,18.104683 
	C74.349373,18.132648 74.532394,18.016394 74.532394,18.016394 
z"/>
<path fill="#FBFEFF" opacity="1.000000" stroke="none" 
	d="
M66.000000,1.000000 
	C68.370560,1.000000 70.741112,1.000000 73.556290,1.246024 
	C74.000916,1.492048 74.002609,1.984095 73.780869,2.095616 
	C73.276642,2.406314 73.089706,2.672584 72.594902,3.058415 
	C71.131630,3.268559 70.071777,3.426236 68.684166,3.463820 
	C67.907135,3.426934 67.457863,3.510142 66.773346,3.417567 
	C66.360077,3.160275 66.182068,3.078766 66.003708,2.747311 
	C66.003357,2.497365 66.000793,1.997479 66.000450,1.748109 
	C66.000107,1.498740 66.000000,1.000000 66.000000,1.000000 
z"/>
<path fill="#FDFCF7" opacity="1.000000" stroke="none" 
	d="
M4.931728,88.334946 
	C4.954489,89.000885 4.977250,89.666824 5.000005,90.666382 
	C3.748004,90.170662 0.685187,92.962959 1.000000,88.500000 
	C1.712997,88.002106 2.425994,88.004204 3.801707,88.006271 
	C4.662949,87.961319 4.861475,87.916397 5.026665,87.987000 
	C4.993328,88.102509 4.931728,88.334946 4.931728,88.334946 
z"/>
<path fill="#FDFCFF" opacity="1.000000" stroke="none" 
	d="
M74.526245,42.999088 
	C75.166855,42.674389 75.807457,42.349689 76.724030,42.012497 
	C77.000000,43.066669 77.000000,44.133339 77.000000,45.600006 
	C76.545616,45.997272 76.091240,45.994549 75.257889,45.787163 
	C74.809311,45.307014 74.655815,45.091183 74.284027,44.907856 
	C74.149612,44.880703 73.921722,45.033329 74.091743,44.718323 
	C74.349922,43.935242 74.438080,43.467163 74.526245,42.999088 
z"/>
<path fill="#FBFEF9" opacity="1.000000" stroke="none" 
	d="
M76.003021,22.998808 
	C76.003021,22.998808 76.501511,22.999498 76.750755,22.999748 
	C77.000000,25.700962 77.000000,28.401924 77.000000,31.551443 
	C77.000000,32.000000 76.500420,32.000214 76.249863,31.551191 
	C76.000542,28.401049 76.001778,25.699928 76.003021,22.998808 
z"/>
<path fill="#F9FDFC" opacity="1.000000" stroke="none" 
	d="
M74.002609,1.984095 
	C74.002609,1.984095 74.000916,1.492048 74.000458,1.246024 
	C75.268898,1.263320 77.612228,-0.085014 76.686737,3.500718 
	C75.957138,4.007242 75.540794,4.013049 75.124451,4.018854 
	C74.890259,3.763748 74.656059,3.508643 74.194664,3.178634 
	C73.967461,3.103730 73.916336,3.117405 73.948593,2.834892 
	C73.988106,2.362950 73.995354,2.173522 74.002609,1.984095 
z"/>
<path fill="#FDFDFD" opacity="1.000000" stroke="none" 
	d="
M37.000000,1.000000 
	C39.370556,1.000000 41.741116,1.000000 44.555794,1.248630 
	C44.999920,1.497259 44.999695,1.994519 44.750282,1.997828 
	C44.500870,2.001138 44.002041,2.007581 43.564430,2.005179 
	C41.084801,2.000360 39.042782,1.997944 37.000393,1.746645 
	C37.000023,1.497764 37.000000,1.000000 37.000000,1.000000 
z"/>
<path fill="#F9FDFC" opacity="1.000000" stroke="none" 
	d="
M65.583984,1.000000 
	C66.000000,1.000000 66.000107,1.498740 65.584251,1.749413 
	C63.778851,1.999668 62.389301,1.999250 60.999756,1.998831 
	C60.999756,1.998831 61.000000,1.499416 61.000000,1.249708 
	C62.389324,1.000000 63.778645,1.000000 65.583984,1.000000 
z"/>
<path fill="#FBFEFE" opacity="1.000000" stroke="none" 
	d="
M75.107147,4.337343 
	C75.540794,4.013049 75.957138,4.007242 76.686737,4.000718 
	C77.000000,4.750000 77.000000,5.500000 77.000000,6.625000 
	C76.363281,6.218610 75.726562,5.437221 75.107147,4.337343 
z"/>
<path fill="#FBFEF9" opacity="1.000000" stroke="none" 
	d="
M44.999695,1.994519 
	C44.999695,1.994519 44.999920,1.497259 44.999962,1.248630 
	C46.066788,1.000000 47.133575,1.000000 48.600182,1.000000 
	C49.000000,1.000000 49.000443,1.495354 48.600639,1.746417 
	C47.133793,1.996493 46.066742,1.995506 44.999695,1.994519 
z"/>
<path fill="#FBFEFE" opacity="1.000000" stroke="none" 
	d="
M36.625000,1.000000 
	C37.000000,1.000000 37.000023,1.497764 36.625420,1.748297 
	C35.500954,1.997736 34.751087,1.996641 34.000633,1.746660 
	C34.000050,1.497773 34.000000,1.000000 34.000000,1.000000 
	C34.750000,1.000000 35.500000,1.000000 36.625000,1.000000 
z"/>
<path fill="#F8FFFE" opacity="1.000000" stroke="none" 
	d="
M33.750000,1.000000 
	C34.000000,1.000000 34.000050,1.497773 33.749474,1.747271 
	C33.331478,1.995355 33.164051,1.993941 32.996628,1.992527 
	C32.996628,1.992527 32.999836,1.496269 32.999916,1.248134 
	C33.000000,1.000000 33.500000,1.000000 33.750000,1.000000 
z"/>
<path fill="#AC4BCD" opacity="1.000000" stroke="none" 
	d="
M19.243402,17.366220 
	C21.900782,17.181570 24.488426,17.215847 27.735607,17.476189 
	C29.302717,17.545191 30.210295,17.388126 31.285019,17.174187 
	C31.452169,17.117310 31.804768,17.098080 31.928232,17.334812 
	C32.137764,17.727350 32.223831,17.883154 32.196114,18.273914 
	C32.035336,18.676443 31.988344,18.844019 31.702736,19.004391 
	C31.464117,18.997189 30.986675,19.001116 30.529728,19.000557 
	C26.717173,19.001717 23.361561,19.003439 19.769281,19.006088 
	C19.532612,19.007017 19.059347,19.015781 19.037582,18.763817 
	C19.007433,18.343454 18.999048,18.175060 18.990665,18.006668 
	C18.990665,18.006668 19.173668,17.585148 19.243402,17.366220 
z"/>
<path fill="#5979D3" opacity="1.000000" stroke="none" 
	d="
M4.998531,31.971600 
	C6.111386,31.754976 7.224240,31.538353 8.666845,31.234196 
	C11.079921,31.330778 13.163244,31.514896 15.636486,32.082047 
	C16.026857,32.647331 16.027311,32.829582 15.570558,33.007568 
	C12.075142,33.007961 9.036935,33.012615 5.753620,33.022346 
	C5.508513,33.027428 5.021303,33.082546 5.009852,33.064854 
	C4.998401,33.047161 4.995442,33.005112 4.997712,32.746738 
	C4.999499,32.316109 4.999015,32.143852 4.998531,31.971600 
z"/>
<path fill="#AF47D6" opacity="1.000000" stroke="none" 
	d="
M19.059347,19.015781 
	C19.059347,19.015781 19.532612,19.007017 19.766285,19.442947 
	C19.998611,21.919075 19.997265,23.959272 19.707695,25.999603 
	C19.036453,25.998831 18.653437,25.997925 18.270420,25.997019 
	C18.187407,23.971472 18.104393,21.945927 18.327240,19.486372 
	C18.633099,19.052364 19.059347,19.015781 19.059347,19.015781 
z"/>
<path fill="#B245D7" opacity="1.000000" stroke="none" 
	d="
M18.158194,26.378899 
	C18.653437,25.997925 19.036453,25.998831 19.709038,26.394407 
	C20.008032,28.361910 20.017462,29.934738 19.791403,31.633070 
	C19.391459,31.825354 19.227003,31.892138 18.818165,31.973392 
	C18.573782,31.987865 18.108465,32.140217 18.050226,31.963806 
	C17.991987,31.787395 17.928604,31.421289 17.928604,31.421289 
	C17.928604,31.421289 17.596195,31.355145 17.717724,30.972412 
	C17.833014,30.369102 17.826773,30.148525 17.820530,29.927946 
	C17.895678,28.872225 17.970823,27.816502 18.158194,26.378899 
z"/>
<path fill="#4C5DE6" opacity="1.000000" stroke="none" 
	d="
M16.027765,33.011833 
	C16.027311,32.829582 16.026857,32.647331 16.017130,32.191628 
	C16.432083,31.800165 16.856312,31.682156 17.604572,31.492718 
	C17.928604,31.421289 17.991987,31.787395 18.021576,32.279648 
	C18.070948,33.195271 18.090734,33.618645 18.090584,34.454559 
	C18.047739,36.247074 18.024830,37.627045 17.725693,38.762608 
	C16.975569,36.682743 16.501667,34.847286 16.027765,33.011833 
z"/>
<path fill="#C472DC" opacity="1.000000" stroke="none" 
	d="
M19.037582,18.763817 
	C19.059347,19.015781 18.633099,19.052364 18.419855,19.061363 
	C18.307871,18.769756 18.409132,18.469149 18.750530,18.087605 
	C18.999048,18.175060 19.007433,18.343454 19.037582,18.763817 
z"/>
<path fill="#EEC9F8" opacity="1.000000" stroke="none" 
	d="
M17.595699,29.934631 
	C17.826773,30.148525 17.833014,30.369102 17.615999,30.836876 
	C17.392744,31.084072 17.042988,31.006969 16.972469,30.726147 
	C16.901951,30.445322 16.924202,29.994783 16.924202,29.994783 
	C16.924202,29.994783 17.370871,29.941315 17.595699,29.934631 
z"/>
<path fill="#FBFEFE" opacity="1.000000" stroke="none" 
	d="
M16.783417,30.066671 
	C16.924202,29.994783 16.901951,30.445322 16.810152,30.650501 
	C16.718353,30.855679 16.457350,30.514751 16.457350,30.514751 
	C16.457350,30.514751 16.642632,30.138559 16.783417,30.066671 
z"/>
<path fill="#4F88E8" opacity="1.000000" stroke="none" 
	d="
M43.279442,88.314468 
	C41.573803,88.368881 40.142376,88.294426 38.073402,88.261490 
	C37.435852,88.303009 36.995148,88.478462 36.995148,88.478462 
	C35.283611,88.317268 33.572071,88.156067 31.444120,87.542801 
	C31.349419,85.725677 31.671129,84.360619 31.994810,82.746941 
	C31.996778,82.498314 31.994770,82.000916 32.004456,81.601379 
	C32.367634,79.102959 32.721123,77.004089 33.292358,74.894234 
	C33.510109,74.883255 33.941692,74.955589 33.984051,74.980194 
	C34.026409,75.004791 34.104950,75.063347 34.205502,75.258720 
	C34.661499,75.496666 35.016941,75.539230 35.372387,75.581795 
	C35.230431,75.363266 35.088470,75.144737 34.957207,74.803024 
	C34.967903,74.679832 34.986599,74.433243 35.362518,74.302094 
	C36.531219,74.093254 37.324001,74.015572 38.089447,74.175522 
	C38.062111,74.413147 38.038261,74.889618 38.166756,75.130966 
	C38.852631,75.215088 39.410007,75.057861 39.956272,74.661438 
	C39.945160,74.422226 39.899986,73.945435 40.338120,73.984619 
	C42.249184,73.941467 43.722118,73.859131 45.448765,73.933670 
	C45.862595,74.208473 46.022713,74.326408 46.182831,74.444336 
	C46.157173,75.078072 46.131512,75.711800 45.783798,76.866745 
	C45.317627,78.258537 45.173515,79.129112 45.020622,80.459091 
	C45.073772,83.110229 45.135696,85.301971 45.197624,87.493713 
	C44.649635,87.724350 44.101643,87.954979 43.279442,88.314468 
z"/>
<path fill="#3CA8BD" opacity="1.000000" stroke="none" 
	d="
M71.111740,45.616875 
	C70.420166,45.663200 69.728600,45.709530 68.968643,45.442261 
	C68.599976,44.752983 68.299683,44.377316 67.571640,44.000973 
	C65.432487,43.997253 63.721081,43.994213 62.005455,43.635902 
	C61.478065,42.187145 60.954899,41.093658 60.323891,39.584457 
	C60.129082,37.448284 60.042110,35.727818 59.973534,33.744110 
	C59.911674,33.324318 59.831421,33.167763 59.777946,32.780624 
	C59.804726,32.550037 59.899406,32.095528 60.251022,32.057343 
	C61.073090,32.014454 61.543545,32.009750 62.466927,32.006744 
	C65.943123,32.008045 68.966393,32.007648 72.239441,32.009155 
	C72.489212,32.011063 72.988777,32.012466 72.991791,32.258682 
	C72.994797,32.504894 73.004875,32.997253 73.003220,33.447487 
	C73.003998,36.599232 73.006424,39.300739 73.003723,42.369835 
	C72.980804,43.470867 72.962997,44.204319 72.691704,44.960587 
	C71.996056,45.194557 71.553894,45.405716 71.111740,45.616875 
z"/>
<path fill="#E14169" opacity="1.000000" stroke="none" 
	d="
M60.103024,59.157856 
	C60.163422,59.549732 60.223820,59.941608 59.881386,60.909798 
	C59.305595,65.578606 59.132633,69.671104 58.959671,73.763596 
	C57.252262,73.863281 55.544853,73.962967 53.412773,73.584686 
	C50.557579,69.039711 45.973076,65.793198 48.409889,59.957809 
	C52.201767,59.599926 55.589203,59.310410 59.258812,59.050377 
	C59.728333,59.105858 59.915680,59.131859 60.103024,59.157856 
z"/>
<path fill="#DD4269" opacity="1.000000" stroke="none" 
	d="
M48.005444,60.026176 
	C45.973076,65.793198 50.557579,69.039711 52.995506,73.476486 
	C51.007381,73.975517 49.011845,74.104782 46.599571,74.339188 
	C46.022713,74.326408 45.862595,74.208473 45.536354,73.760727 
	C45.370228,73.430916 45.535702,73.076324 45.800648,72.978134 
	C45.878223,71.903008 45.690853,70.926071 45.406025,69.519608 
	C45.415356,67.053558 45.522144,65.017021 45.853043,62.911995 
	C46.108013,61.996498 46.138870,61.149487 46.469597,60.220695 
	C47.181458,60.101341 47.593449,60.063759 48.005444,60.026176 
z"/>
<path fill="#CA4A6D" opacity="1.000000" stroke="none" 
	d="
M59.355587,73.605644 
	C59.132633,69.671104 59.305595,65.578606 59.791092,61.196823 
	C59.986252,65.087585 59.868877,69.267639 59.355587,73.605644 
z"/>
<path fill="#43A5B3" opacity="1.000000" stroke="none" 
	d="
M62.009678,43.991173 
	C63.721081,43.994213 65.432487,43.997253 67.606415,44.381573 
	C68.103577,45.015285 68.138199,45.267727 68.172829,45.520164 
	C66.370094,45.688499 64.567368,45.856834 62.063385,46.149845 
	C61.217606,46.430801 61.073074,46.587086 60.941879,46.489655 
	C61.002750,46.073360 61.050289,45.910786 61.205055,45.526421 
	C61.544743,44.866810 61.777210,44.428993 62.009678,43.991173 
z"/>
<path fill="#6D96D9" opacity="1.000000" stroke="none" 
	d="
M45.505054,87.179642 
	C45.135696,85.301971 45.073772,83.110229 45.281677,80.459366 
	C45.725777,80.000664 45.900040,80.001091 46.074303,80.001518 
	C45.987030,82.289536 45.899761,84.577560 45.505054,87.179642 
z"/>
<path fill="#A23E65" opacity="1.000000" stroke="none" 
	d="
M60.219139,58.715801 
	C59.915680,59.131859 59.728333,59.105858 59.267506,58.610504 
	C58.999416,56.093170 59.004814,54.045197 59.295334,51.998184 
	C59.770535,51.999763 59.960613,52.000381 60.150688,52.000996 
	C60.212212,54.091911 60.273735,56.182831 60.219139,58.715801 
z"/>
<path fill="#9F4063" opacity="1.000000" stroke="none" 
	d="
M60.252789,51.586693 
	C59.960613,52.000381 59.770535,51.999763 59.292145,51.583244 
	C58.995522,49.783855 58.987198,48.400368 59.272675,46.995796 
	C59.761509,46.951885 59.956547,46.929062 60.328468,46.931240 
	C60.505352,46.956245 60.858395,47.011131 60.858395,47.011131 
	C60.690559,48.398216 60.522724,49.785305 60.252789,51.586693 
z"/>
<path fill="#6C98D5" opacity="1.000000" stroke="none" 
	d="
M46.135948,79.623619 
	C45.900040,80.001091 45.725777,80.000664 45.290459,79.999969 
	C45.173515,79.129112 45.317627,78.258537 45.724716,77.178452 
	C46.057655,77.727875 46.127625,78.486801 46.135948,79.623619 
z"/>
<path fill="#45A4B6" opacity="1.000000" stroke="none" 
	d="
M71.427719,45.748138 
	C71.553894,45.405716 71.996056,45.194557 72.935600,44.990456 
	C73.432991,44.997505 73.921722,45.033329 73.921722,45.033329 
	C73.921722,45.033329 74.149612,44.880703 74.082748,45.082474 
	C73.939995,45.444256 73.864105,45.604267 73.788223,45.764278 
	C73.106712,45.802654 72.425209,45.841030 71.427719,45.748138 
z"/>
<path fill="#45A4B6" opacity="1.000000" stroke="none" 
	d="
M68.234627,45.507343 
	C68.138199,45.267727 68.103577,45.015285 68.034164,44.382248 
	C68.299683,44.377316 68.599976,44.752983 68.653595,45.281082 
	C68.406929,45.433510 68.296425,45.494522 68.234627,45.507343 
z"/>
<path fill="#FEFBFD" opacity="1.000000" stroke="none" 
	d="
M60.928547,46.743374 
	C61.073074,46.587086 61.217606,46.430801 61.680683,46.253418 
	C61.729389,46.602573 61.459545,46.972832 61.053688,47.119560 
	C60.917679,46.896038 60.928547,46.743374 60.928547,46.743374 
z"/>
<path fill="#FEF8FE" opacity="1.000000" stroke="none" 
	d="
M60.941879,46.489655 
	C60.928547,46.743374 60.917679,46.896038 60.903088,46.971451 
	C60.888496,47.046860 60.848110,47.046234 60.853252,47.028683 
	C60.858395,47.011131 60.505352,46.956245 60.464737,46.743279 
	C60.424122,46.530312 60.562454,46.086056 60.733276,46.060200 
	C60.904102,46.034344 61.097828,45.748215 61.097828,45.748215 
	C61.050289,45.910786 61.002750,46.073360 60.941879,46.489655 
z"/>
<path fill="#BDD4EB" opacity="1.000000" stroke="none" 
	d="
M74.075317,45.843689 
	C73.864105,45.604267 73.939995,45.444256 74.217171,45.109627 
	C74.655815,45.091183 74.809311,45.307014 74.917137,45.781742 
	C74.757706,45.961689 74.560059,45.942394 74.075317,45.843689 
z"/>
<path fill="#4979E3" opacity="1.000000" stroke="none" 
	d="
M3.970817,57.990639 
	C3.926454,53.970497 3.882092,49.950352 4.173256,45.470963 
	C4.685845,45.006821 4.862907,45.001923 5.445851,45.051201 
	C9.910716,45.065571 13.969699,45.025757 18.149117,45.184174 
	C18.467268,45.628559 18.710112,45.816364 18.996456,46.290314 
	C18.990675,47.093700 18.986521,47.552601 18.733150,48.024864 
	C18.220129,48.193714 17.956318,48.349197 17.692507,48.504677 
	C18.122217,48.665295 18.551928,48.825912 18.987640,49.405254 
	C18.989904,51.219822 18.986166,52.615662 18.649792,54.057716 
	C18.538593,55.064838 18.760031,56.025745 18.987701,57.361092 
	C19.005333,58.484413 19.016726,59.233299 18.789425,59.988655 
	C18.550732,59.995132 18.073191,59.999687 17.966640,59.833508 
	C17.572083,59.776985 17.284077,59.886639 16.548344,59.997116 
	C12.408320,59.661564 8.716022,59.325195 4.905713,58.767311 
	C4.515407,58.360741 4.243112,58.175690 3.970817,57.990639 
z"/>
<path fill="#65B7F1" opacity="1.000000" stroke="none" 
	d="
M10.439638,88.293259 
	C8.590894,88.321770 7.178463,88.231049 5.348879,88.237640 
	C4.931728,88.334946 4.993328,88.102509 5.015230,87.768524 
	C5.037133,87.434540 5.015879,86.995392 4.906562,86.772064 
	C4.596003,86.266403 4.327876,86.080544 3.992867,85.991158 
	C3.974174,82.289284 3.955481,78.587418 4.481481,74.433006 
	C9.016689,73.987228 13.007204,73.993988 17.086098,74.167877 
	C17.449129,74.226540 17.723783,74.118073 17.996983,73.998337 
	C17.995525,73.987083 17.997906,73.964485 18.243170,73.982483 
	C18.488434,74.000488 18.980076,74.016029 18.985184,74.012085 
	C18.990294,74.008133 18.993399,74.010681 18.991468,74.345802 
	C18.993309,75.127731 18.997080,75.574539 18.795601,76.118835 
	C18.338022,76.398544 18.154516,76.634331 17.991493,77.298798 
	C17.715597,79.547615 15.237313,81.840652 18.948563,83.381668 
	C18.976109,84.842484 18.987495,85.905121 18.993160,87.222122 
	C18.984753,87.646088 18.982067,87.815689 18.979380,87.985283 
	C16.278236,88.048195 13.577094,88.111115 10.439638,88.293259 
z"/>
<path fill="#5698E9" opacity="1.000000" stroke="none" 
	d="
M16.997719,74.000748 
	C13.007204,73.993988 9.016689,73.987228 4.574391,73.978943 
	C4.023896,69.298889 3.925185,64.620369 4.153588,59.473480 
	C4.661709,58.999687 4.842716,58.994259 5.023724,58.988827 
	C8.716022,59.325195 12.408320,59.661564 16.549618,60.453037 
	C18.034620,64.185234 14.829969,68.275635 18.943562,71.307327 
	C18.960913,72.105255 18.962223,72.561417 18.753510,73.119568 
	C18.281652,73.410461 18.099792,73.658096 17.997906,73.964485 
	C17.997906,73.964485 17.995525,73.987083 17.746887,73.988487 
	C17.331406,73.993515 17.164562,73.997131 16.997719,74.000748 
z"/>
<path fill="#4169E1" opacity="1.000000" stroke="none" 
	d="
M18.028683,44.985939 
	C13.969699,45.025757 9.910716,45.065571 5.431022,44.607243 
	C5.014282,41.737343 5.018253,39.365589 5.185233,36.905518 
	C5.409441,36.711075 5.547768,36.547649 5.518732,36.508568 
	C5.379494,36.321167 5.194983,36.167404 4.911792,35.774509 
	C4.521823,35.358589 4.246617,35.169849 3.971411,34.981110 
	C3.924268,34.538868 3.877126,34.096630 4.166393,33.332199 
	C4.502804,33.010006 4.995442,33.005112 4.995442,33.005112 
	C4.995442,33.005112 4.998401,33.047161 5.103272,33.217762 
	C5.471671,33.264668 5.735199,33.140968 5.998727,33.017273 
	C9.036935,33.012615 12.075142,33.007961 15.570558,33.007568 
	C16.501667,34.847286 16.975569,36.682743 17.742622,39.189350 
	C18.033411,41.568981 18.031046,43.277462 18.028683,44.985939 
z"/>
<path fill="#5E7AD5" opacity="1.000000" stroke="none" 
	d="
M3.865466,35.427834 
	C4.246617,35.169849 4.521823,35.358589 4.905383,36.022488 
	C5.013735,36.497646 5.022224,36.993832 5.022224,36.993832 
	C5.018253,39.365589 5.014282,41.737343 5.025140,44.553062 
	C4.862907,45.001923 4.685845,45.006821 4.243044,45.012920 
	C3.904711,41.967602 3.832116,38.921078 3.865466,35.427834 
z"/>
<path fill="#7EBDEB" opacity="1.000000" stroke="none" 
	d="
M3.946181,86.243256 
	C4.327876,86.080544 4.596003,86.266403 4.650173,86.773247 
	C4.332350,86.998474 4.161599,86.999191 3.990849,86.999916 
	C3.960397,86.831726 3.929946,86.663544 3.946181,86.243256 
z"/>
<path fill="#81C0EB" opacity="1.000000" stroke="none" 
	d="
M3.954040,87.258621 
	C4.161599,86.999191 4.332350,86.998474 4.759490,86.996567 
	C5.015879,86.995392 5.037133,87.434540 5.048567,87.653015 
	C4.861475,87.916397 4.662949,87.961319 4.157842,88.021011 
	C3.873251,87.862976 3.895241,87.690155 3.954040,87.258621 
z"/>
<path fill="#608BDA" opacity="1.000000" stroke="none" 
	d="
M4.905713,58.767311 
	C4.842716,58.994259 4.661709,58.999687 4.208912,59.010956 
	C3.898290,58.844345 3.859458,58.671898 3.895721,58.245045 
	C4.243112,58.175690 4.515407,58.360741 4.905713,58.767311 
z"/>
<path fill="#5E7AD5" opacity="1.000000" stroke="none" 
	d="
M4.997712,32.746738 
	C4.995442,33.005112 4.502804,33.010006 4.257021,33.008873 
	C4.152080,32.683212 4.292922,32.358688 4.716147,32.002884 
	C4.999015,32.143852 4.999499,32.316109 4.997712,32.746738 
z"/>
<path fill="#3CA8BC" opacity="1.000000" stroke="none" 
	d="
M32.309898,18.038958 
	C32.223831,17.883154 32.137764,17.727350 31.972370,17.048069 
	C31.814688,16.348894 31.736334,16.173197 31.657978,15.997499 
	C31.775766,13.300189 31.893555,10.602879 32.298737,7.285562 
	C32.746742,6.118155 32.907352,5.570757 33.511795,5.014499 
	C36.637184,5.001104 39.318745,4.996571 42.376156,4.994663 
	C43.503735,5.000800 44.255466,5.004311 45.008499,5.341184 
	C45.020370,6.119075 45.030937,6.563604 45.036713,7.338441 
	C45.037041,8.109158 45.042156,8.549566 45.033085,9.427971 
	C45.017673,11.907056 45.016453,13.948146 44.559994,15.992617 
	C40.745876,16.521170 37.386990,17.046341 33.743847,17.662003 
	C33.076359,17.847982 32.693127,17.943470 32.309898,18.038958 
z"/>
<path fill="#4AA3B4" opacity="1.000000" stroke="none" 
	d="
M42.000305,4.992037 
	C39.318745,4.996571 36.637184,5.001104 33.468941,4.707484 
	C32.940853,4.207091 32.899441,4.004851 32.858028,3.802611 
	C32.858028,3.802611 32.961651,3.456957 33.449600,3.336332 
	C36.620155,3.356575 39.302757,3.497443 41.991619,3.862332 
	C41.999790,4.388245 42.000599,4.690139 42.000305,4.992037 
z"/>
<path fill="#ECFEFF" opacity="1.000000" stroke="none" 
	d="
M41.985359,3.638311 
	C39.302757,3.497443 36.620155,3.356575 33.489845,3.160451 
	C33.031113,2.919923 33.020088,2.734650 33.002846,2.270952 
	C33.164051,1.993941 33.331478,1.995355 33.750061,1.996157 
	C34.751087,1.996641 35.500954,1.997736 36.625793,1.997179 
	C39.042782,1.997944 41.084801,2.000360 43.563942,2.268557 
	C44.001415,2.709983 44.001759,2.885630 43.660755,3.145084 
	C42.874725,3.365364 42.430042,3.501838 41.985359,3.638311 
z"/>
<path fill="#C591D6" opacity="1.000000" stroke="none" 
	d="
M31.117870,17.231064 
	C30.210295,17.388126 29.302717,17.545191 28.171509,17.510235 
	C28.406988,17.196627 28.866096,17.075039 29.952526,16.987083 
	C30.759188,17.090834 30.938530,17.160948 31.117870,17.231064 
z"/>
<path fill="#72BBC1" opacity="1.000000" stroke="none" 
	d="
M32.558105,4.007561 
	C32.899441,4.004851 32.940853,4.207091 33.025112,4.716345 
	C32.907352,5.570757 32.746742,6.118155 32.356262,6.838188 
	C32.170322,6.078052 32.214252,5.145281 32.558105,4.007561 
z"/>
<path fill="#FDF2FE" opacity="1.000000" stroke="none" 
	d="
M31.285019,17.174187 
	C30.938530,17.160948 30.759188,17.090834 30.305809,16.929588 
	C30.413399,16.573633 30.795025,16.308807 31.417315,16.020741 
	C31.736334,16.173197 31.814688,16.348894 31.848906,16.811337 
	C31.804768,17.098080 31.452169,17.117310 31.285019,17.174187 
z"/>
<path fill="#5698EA" opacity="1.000000" stroke="none" 
	d="
M18.998880,86.967758 
	C18.987495,85.905121 18.976109,84.842484 18.966305,82.954636 
	C18.979389,80.415291 18.990891,78.701164 18.999138,76.745613 
	C18.995884,76.504196 19.000849,76.021347 19.000851,76.021347 
	C18.997080,75.574539 18.993309,75.127731 19.421154,74.341705 
	C21.570854,74.008774 23.288940,74.015053 25.095098,74.184891 
	C25.453987,74.238998 25.724804,74.129555 26.254162,73.911827 
	C27.008741,73.548378 27.504778,73.293213 28.000439,73.450974 
	C28.998533,76.576042 29.997004,79.288193 31.103548,82.218674 
	C31.409960,82.709991 31.670368,82.896179 31.992844,82.995567 
	C31.671129,84.360619 31.349419,85.725677 31.023151,87.441589 
	C27.651796,87.882034 24.284998,87.971611 20.352818,87.787842 
	C19.577280,87.256248 19.314428,87.074013 18.998880,86.967758 
z"/>
<path fill="#74A6E3" opacity="1.000000" stroke="none" 
	d="
M18.993160,87.222122 
	C19.314428,87.074013 19.577280,87.256248 19.897785,87.729782 
	C19.838251,87.989838 19.668371,88.034592 19.238934,88.032318 
	C18.982067,87.815689 18.984753,87.646088 18.993160,87.222122 
z"/>
<path fill="#FDFEFD" opacity="1.000000" stroke="none" 
	d="
M36.998009,88.577431 
	C36.995148,88.478462 37.435852,88.303009 37.658405,88.384476 
	C37.739849,88.649452 37.559727,88.778503 37.172451,88.863739 
	C37.004311,88.874382 37.000870,88.676399 36.998009,88.577431 
z"/>
<path fill="#54D8B7" opacity="1.000000" stroke="none" 
	d="
M69.011932,3.583914 
	C70.071777,3.426236 71.131630,3.268559 72.819290,3.128446 
	C73.447105,3.146009 73.916336,3.117405 73.916336,3.117405 
	C73.916336,3.117405 73.967461,3.103730 73.949898,3.084308 
	C74.016258,3.492597 74.100189,3.920308 73.867599,4.675550 
	C73.355766,5.005968 73.160454,5.008855 72.621826,5.008388 
	C71.189644,4.531328 70.100792,4.057621 69.011932,3.583914 
z"/>
<path fill="#5AD6B4" opacity="1.000000" stroke="none" 
	d="
M72.965141,5.011741 
	C73.160454,5.008855 73.355766,5.005968 73.844894,5.002069 
	C74.186928,7.703980 74.235168,10.406902 73.934128,13.555561 
	C73.395142,14.001328 73.205414,14.001358 73.010277,13.551487 
	C72.991623,10.404970 72.978386,7.708356 72.965141,5.011741 
z"/>
<path fill="#5BD4B6" opacity="1.000000" stroke="none" 
	d="
M73.015694,14.001390 
	C73.205414,14.001358 73.395142,14.001328 73.870316,14.002500 
	C74.240242,15.076025 74.324730,16.148348 74.470810,17.618530 
	C74.532394,18.016394 74.349373,18.132648 73.960678,18.075310 
	C73.382637,18.006968 73.193306,17.995968 73.001953,17.587040 
	C73.005188,16.126537 73.010445,15.063964 73.015694,14.001390 
z"/>
<path fill="#EAFFFE" opacity="1.000000" stroke="none" 
	d="
M75.719406,23.005173 
	C76.001778,25.699928 76.000542,28.401049 76.000069,31.551294 
	C75.609253,31.785143 75.217667,31.569866 74.595985,30.789089 
	C74.285980,29.150465 74.206078,28.077343 74.198067,26.676128 
	C74.469887,25.248692 74.669807,24.149345 74.869720,23.049999 
	C75.058411,23.037178 75.247101,23.024357 75.719406,23.005173 
z"/>
<path fill="#4BA3B2" opacity="1.000000" stroke="none" 
	d="
M73.008850,42.002251 
	C73.006424,39.300739 73.003998,36.599232 73.296188,33.443233 
	C73.786072,32.982426 73.981339,32.976109 74.176605,32.969788 
	C74.289810,33.510693 74.403015,34.051598 74.493141,35.333710 
	C74.597626,37.373749 74.725182,38.672581 74.852737,39.971413 
	C74.692123,40.417877 74.531517,40.864338 73.978745,41.655460 
	C73.394005,42.000832 73.201424,42.001541 73.008850,42.002251 
z"/>
<path fill="#FDFCFF" opacity="1.000000" stroke="none" 
	d="
M75.087440,39.852745 
	C74.725182,38.672581 74.597626,37.373749 74.638977,35.721539 
	C74.979301,36.823463 75.150726,38.278770 75.087440,39.852745 
z"/>
<path fill="#53BAB9" opacity="1.000000" stroke="none" 
	d="
M74.255348,32.648018 
	C73.981339,32.976109 73.786072,32.982426 73.297836,32.993000 
	C73.004875,32.997253 72.994797,32.504894 72.994675,32.004253 
	C72.993126,31.334093 72.991699,31.164572 72.992783,30.595667 
	C73.000465,29.131302 73.005646,28.066324 73.289658,27.001331 
	C73.754379,27.002283 73.940269,27.003250 74.126167,27.004219 
	C74.206078,28.077343 74.285980,29.150465 74.442383,30.619205 
	C74.457283,31.451967 74.395691,31.889111 74.255348,32.648018 
z"/>
<path fill="#4FA2AA" opacity="1.000000" stroke="none" 
	d="
M73.003723,42.369835 
	C73.201424,42.001541 73.394005,42.000832 73.876007,41.999664 
	C74.236908,42.161762 74.308411,42.324318 74.453079,42.742981 
	C74.438080,43.467163 74.349922,43.935242 74.091743,44.718323 
	C73.921722,45.033329 73.432991,44.997505 73.189095,44.967636 
	C72.962997,44.204319 72.980804,43.470867 73.003723,42.369835 
z"/>
<path fill="#4FBDB4" opacity="1.000000" stroke="none" 
	d="
M51.008854,3.016827 
	C52.721161,3.061755 54.433468,3.106684 56.935516,3.165501 
	C58.470310,3.144963 59.215370,3.110537 59.940994,3.215533 
	C59.921558,3.354956 59.873478,3.632363 59.916401,3.856164 
	C59.991856,4.386992 60.010994,4.694854 60.010830,5.002019 
	C60.004913,5.000489 59.996380,5.006295 59.538719,5.003652 
	C55.720551,4.998626 52.360043,4.996244 48.998100,4.689826 
	C48.993340,4.183074 48.990005,3.980359 49.255825,3.707287 
	C50.019608,3.430230 50.514229,3.223529 51.008854,3.016827 
z"/>
<path fill="#E8FFFE" opacity="1.000000" stroke="none" 
	d="
M50.844078,2.766560 
	C50.514229,3.223529 50.019608,3.430230 48.898537,3.651162 
	C47.550915,3.694579 46.829739,3.723766 45.876232,3.595857 
	C45.096634,3.312933 44.549370,3.187106 44.002102,3.061278 
	C44.001759,2.885630 44.001415,2.709983 44.001556,2.270958 
	C44.002041,2.007581 44.500870,2.001138 44.750282,1.997828 
	C46.066742,1.995506 47.133793,1.996493 48.600998,1.994094 
	C49.560539,2.165902 50.119923,2.341098 50.844078,2.766560 
z"/>
<path fill="#E2FFFF" opacity="1.000000" stroke="none" 
	d="
M60.750893,2.000278 
	C62.389301,1.999250 63.778851,1.999668 65.584595,1.998783 
	C66.000793,1.997479 66.003357,2.497365 65.569138,2.824896 
	C63.381111,3.312406 61.627293,3.472385 59.873478,3.632363 
	C59.873478,3.632363 59.921558,3.354956 59.954735,2.949011 
	C59.993408,2.365481 59.998898,2.187896 60.004383,2.010310 
	C60.004383,2.010310 60.502033,2.001724 60.750893,2.000278 
z"/>
<path fill="#EAFFFE" opacity="1.000000" stroke="none" 
	d="
M59.663906,2.008102 
	C59.998898,2.187896 59.993408,2.365481 59.974171,2.809588 
	C59.215370,3.110537 58.470310,3.144963 57.359261,3.098807 
	C57.769989,2.680781 58.546711,2.343338 59.663906,2.008102 
z"/>
<path fill="#4FBDB4" opacity="1.000000" stroke="none" 
	d="
M74.198067,26.676128 
	C73.940269,27.003250 73.754379,27.002283 73.285744,26.600925 
	C73.005074,25.132706 73.007156,24.064878 73.304688,22.985092 
	C73.796669,22.958042 73.993217,22.942951 74.189758,22.927860 
	C74.189758,22.927860 74.531296,22.981970 74.700508,23.015984 
	C74.669807,24.149345 74.469887,25.248692 74.198067,26.676128 
z"/>
<path fill="#53BFAF" opacity="1.000000" stroke="none" 
	d="
M74.251869,22.525793 
	C73.993217,22.942951 73.796669,22.958042 73.301628,22.568680 
	C72.998268,20.775593 72.993416,19.386959 72.993736,17.998516 
	C72.998917,17.998703 73.003967,17.984970 73.003967,17.984970 
	C73.193306,17.995968 73.382637,18.006968 73.855934,18.047344 
	C74.197922,19.425722 74.255951,20.774723 74.251869,22.525793 
z"/>
<path fill="#42E1BA" opacity="1.000000" stroke="none" 
	d="
M73.010277,13.551487 
	C73.010445,15.063964 73.005188,16.126537 73.001953,17.587040 
	C73.003967,17.984970 72.998917,17.998703 72.544151,17.999393 
	C68.395920,17.664989 64.702446,17.329897 60.996376,16.577629 
	C60.654644,12.442402 60.325512,8.724349 59.996380,5.006295 
	C59.996380,5.006295 60.004913,5.000489 60.420620,5.002318 
	C62.893749,4.533881 64.951172,4.063615 67.008598,3.593349 
	C67.457863,3.510142 67.907135,3.426934 68.684166,3.463820 
	C70.100792,4.057621 71.189644,4.531328 72.621826,5.008388 
	C72.978386,7.708356 72.991623,10.404970 73.010277,13.551487 
z"/>
<path fill="#54D8B7" opacity="1.000000" stroke="none" 
	d="
M66.773346,3.417567 
	C64.951172,4.063615 62.893749,4.533881 60.426537,5.003848 
	C60.010994,4.694854 59.991856,4.386992 59.916401,3.856164 
	C61.627293,3.472385 63.381111,3.312406 65.569489,3.074842 
	C66.182068,3.078766 66.360077,3.160275 66.773346,3.417567 
z"/>
<path fill="#E2FFFF" opacity="1.000000" stroke="none" 
	d="
M73.948593,2.834892 
	C73.916336,3.117405 73.447105,3.146009 73.222717,3.075979 
	C73.089706,2.672584 73.276642,2.406314 73.780869,2.095616 
	C73.995354,2.173522 73.988106,2.362950 73.948593,2.834892 
z"/>
<path fill="#B941E1" opacity="1.000000" stroke="none" 
	d="
M20.026892,31.507568 
	C20.017462,29.934738 20.008032,28.361910 19.997259,26.394276 
	C19.997265,23.959272 19.998611,21.919075 20.002954,19.442020 
	C23.361561,19.003439 26.717173,19.001717 30.536118,19.416943 
	C31.005766,21.223616 31.012077,22.613340 31.010761,24.402363 
	C31.003632,25.867561 31.004131,26.933464 31.001381,28.332314 
	C30.994255,29.108543 30.990381,29.551825 30.696167,30.118895 
	C29.304117,30.722107 28.202410,31.201529 26.664127,31.761162 
	C24.160120,31.884420 22.092691,31.927464 20.050776,31.854860 
	C20.076288,31.739214 20.026892,31.507568 20.026892,31.507568 
z"/>
<path fill="#924FD7" opacity="1.000000" stroke="none" 
	d="
M31.018391,24.003067 
	C31.012077,22.613340 31.005766,21.223616 30.993065,19.417503 
	C30.986675,19.001116 31.464117,18.997189 31.818836,18.962082 
	C32.173557,18.926973 32.418365,18.897955 32.314644,19.317059 
	C32.155571,21.158304 32.100220,22.580446 31.788252,24.001938 
	C31.360552,24.001883 31.189470,24.002474 31.018391,24.003067 
z"/>
<path fill="#254AA0" opacity="1.000000" stroke="none" 
	d="
M32.196114,18.273914 
	C32.693127,17.943470 33.076359,17.847982 33.982803,17.784824 
	C34.677189,17.867558 34.848354,17.917961 34.848064,18.217981 
	C33.923859,18.611052 33.171112,18.754503 32.418365,18.897957 
	C32.418365,18.897955 32.173557,18.926973 32.057457,18.969284 
	C31.988344,18.844019 32.035336,18.676443 32.196114,18.273914 
z"/>
<path fill="#406BD7" opacity="1.000000" stroke="none" 
	d="
M5.753620,33.022350 
	C5.735199,33.140968 5.471671,33.264668 5.114723,33.235455 
	C5.021303,33.082546 5.508513,33.027428 5.753620,33.022350 
z"/>
<path fill="#393ACE" opacity="1.000000" stroke="none" 
	d="
M18.110519,34.042015 
	C18.090734,33.618645 18.070948,33.195271 18.079815,32.456059 
	C18.108465,32.140217 18.573782,31.987865 18.801075,32.232151 
	C19.027313,32.648914 19.026260,32.821392 18.923016,33.209454 
	C18.643744,33.699425 18.406973,33.905083 18.110519,34.042015 
z"/>
<path fill="#4D21C9" opacity="1.000000" stroke="none" 
	d="
M19.025206,32.993870 
	C19.026260,32.821392 19.027313,32.648914 19.045456,32.217678 
	C19.227003,31.892138 19.391459,31.825354 19.791403,31.633070 
	C20.026892,31.507568 20.076288,31.739214 19.943344,32.077774 
	C19.608702,32.690475 19.346970,32.882984 19.025206,32.993870 
z"/>
<path fill="#2F1BC6" opacity="1.000000" stroke="none" 
	d="
M18.923016,33.209454 
	C19.346970,32.882984 19.608702,32.690475 19.917831,32.193420 
	C22.092691,31.927464 24.160120,31.884420 27.041298,31.867638 
	C28.905678,31.939816 29.956310,31.985731 31.002848,32.463322 
	C31.003906,34.929451 31.009060,36.963909 31.008606,39.427181 
	C31.038748,41.301785 31.074493,42.747566 30.851614,44.439178 
	C29.431551,44.870407 28.270109,45.055801 26.675911,45.200111 
	C23.828131,45.421288 21.413107,45.683556 18.998083,45.945824 
	C18.710112,45.816364 18.467268,45.628559 18.149117,45.184174 
	C18.031046,43.277462 18.033411,41.568981 18.018847,39.433762 
	C18.024830,37.627045 18.047739,36.247074 18.090584,34.454559 
	C18.406973,33.905083 18.643744,33.699425 18.923016,33.209454 
z"/>
<path fill="#6A2662" opacity="1.000000" stroke="none" 
	d="
M45.628933,62.980480 
	C45.522144,65.017021 45.415356,67.053558 45.266727,69.900688 
	C45.328491,71.499626 45.432095,72.287979 45.535698,73.076324 
	C45.535702,73.076324 45.370228,73.430916 45.282639,73.603851 
	C43.722118,73.859131 42.249184,73.941467 40.041622,73.964188 
	C38.910255,73.915672 38.513519,73.926781 38.116779,73.937897 
	C37.324001,74.015572 36.531219,74.093254 35.095451,74.150772 
	C34.259365,74.064995 34.066265,73.999382 33.724972,73.916382 
	C33.576775,73.898987 33.278648,73.912483 33.048599,73.731201 
	C32.484081,73.073730 32.149616,72.597542 31.925093,71.664986 
	C32.042603,68.140823 32.050167,65.073021 32.086269,61.622322 
	C32.213600,60.482159 32.312397,59.724899 32.732140,58.986450 
	C33.695305,59.036308 34.337521,59.067352 35.050900,59.432884 
	C36.770313,61.563290 38.129219,61.688347 39.430569,59.075127 
	C41.595455,59.475334 43.346779,59.893295 45.141155,60.653088 
	C45.332451,61.656773 45.480694,62.318626 45.628933,62.980480 
z"/>
<path fill="#5697EF" opacity="1.000000" stroke="none" 
	d="
M31.815151,72.121346 
	C32.149616,72.597542 32.484081,73.073730 32.970242,73.974503 
	C33.106163,74.567780 33.090385,74.736496 33.074612,74.905212 
	C32.721123,77.004089 32.367634,79.102959 31.754665,81.600754 
	C31.495186,81.999680 30.995476,82.000343 30.995476,82.000343 
	C29.997004,79.288193 28.998533,76.576042 28.325113,73.439728 
	C29.437689,72.759460 30.225212,72.503349 31.211849,72.206268 
	C31.410963,72.165291 31.815153,72.121346 31.815151,72.121346 
z"/>
<path fill="#5698E9" opacity="1.000000" stroke="none" 
	d="
M39.967384,74.900635 
	C39.410007,75.057861 38.852631,75.215088 38.487907,75.109940 
	C39.109501,74.865257 39.538441,74.882942 39.967384,74.900635 
z"/>
<path fill="#5697EF" opacity="1.000000" stroke="none" 
	d="
M34.946514,74.926208 
	C35.088470,75.144737 35.230431,75.363266 35.372387,75.581795 
	C35.016941,75.539230 34.661499,75.496666 34.416000,75.227547 
	C34.525951,75.000999 34.946514,74.926208 34.946514,74.926208 
z"/>
<path fill="#68417F" opacity="1.000000" stroke="none" 
	d="
M39.956272,74.661430 
	C39.538441,74.882942 39.109501,74.865257 38.359409,74.868591 
	C38.038261,74.889618 38.062111,74.413147 38.089447,74.175522 
	C38.513519,73.926781 38.910255,73.915672 39.603493,73.925003 
	C39.899986,73.945435 39.945160,74.422226 39.956272,74.661430 
z"/>
<path fill="#5698E9" opacity="1.000000" stroke="none" 
	d="
M34.957207,74.803024 
	C34.946514,74.926208 34.525951,75.000999 34.315453,75.032173 
	C34.104950,75.063347 34.026409,75.004791 33.983246,74.723938 
	C33.917774,74.273308 33.895470,74.103539 33.873169,73.933769 
	C34.066265,73.999382 34.259365,74.064995 34.719528,74.281921 
	C34.986599,74.433243 34.967903,74.679832 34.957207,74.803024 
z"/>
<path fill="#5B98F3" opacity="1.000000" stroke="none" 
	d="
M31.103550,82.218674 
	C30.995476,82.000343 31.495186,81.999680 31.744978,82.000298 
	C31.994770,82.000916 31.996778,82.498314 31.994812,82.746941 
	C31.670368,82.896179 31.409960,82.709991 31.103550,82.218674 
z"/>
<path fill="#68417F" opacity="1.000000" stroke="none" 
	d="
M33.724972,73.916382 
	C33.895470,74.103539 33.917774,74.273308 33.940887,74.699333 
	C33.941692,74.955589 33.510109,74.883255 33.292358,74.894234 
	C33.090385,74.736496 33.106163,74.567780 33.200294,74.155777 
	C33.278648,73.912483 33.576775,73.898987 33.724972,73.916382 
z"/>
<path fill="#3FC5BC" opacity="1.000000" stroke="none" 
	d="
M61.008976,16.994802 
	C64.702446,17.329897 68.395920,17.664989 72.538971,17.999207 
	C72.993416,19.386959 72.998268,20.775593 73.006180,22.580637 
	C73.007156,24.064878 73.005074,25.132706 73.006912,26.600941 
	C73.005646,28.066324 73.000465,29.131302 72.773796,30.706686 
	C72.279251,31.419577 72.091705,31.682964 71.989662,32.007252 
	C68.966393,32.007648 65.943123,32.008045 62.302711,31.762730 
	C61.137714,31.345863 60.589855,31.174713 60.026192,30.586737 
	C60.002377,28.780323 59.994366,27.390736 59.991642,25.557209 
	C59.996319,22.746418 59.995712,20.379560 60.104660,17.790056 
	C60.416580,17.289722 60.681499,17.098854 61.008976,16.994802 
z"/>
<path fill="#39394B" opacity="1.000000" stroke="none" 
	d="
M59.955139,34.007355 
	C60.042110,35.727818 60.129082,37.448284 60.191193,39.942245 
	C60.095367,41.473545 60.024395,42.231346 59.737640,43.101177 
	C59.259853,43.422676 59.079632,43.687759 58.766312,44.113983 
	C58.282078,44.414604 58.101162,44.671898 57.574127,45.023087 
	C55.698158,45.168835 54.256729,45.282871 52.657928,45.335686 
	C52.500549,45.274464 52.184654,45.393925 51.826042,45.301029 
	C50.978172,45.139767 50.488914,45.071400 49.855911,44.774845 
	C49.144428,44.701027 48.576694,44.855392 47.737518,45.013000 
	C47.289291,44.977554 47.112503,44.938869 46.741871,44.543526 
	C46.339203,40.253490 46.130379,36.320118 46.264069,32.286118 
	C47.076187,32.111523 47.545792,32.037563 48.464161,31.997395 
	C51.615437,31.986015 54.317947,31.940844 57.344658,31.970242 
	C58.110252,32.019489 58.551655,31.994175 59.223366,32.032955 
	C59.453678,32.097054 59.931789,32.092495 59.933895,32.081055 
	C59.936001,32.069614 59.899406,32.095528 59.899406,32.095528 
	C59.899406,32.095528 59.804726,32.550037 59.648155,32.895702 
	C59.646103,33.496696 59.800625,33.752026 59.955139,34.007355 
z"/>
<path fill="#49A3B3" opacity="1.000000" stroke="none" 
	d="
M59.953423,42.989147 
	C60.024395,42.231346 60.095367,41.473545 60.299034,40.357956 
	C60.954899,41.093658 61.478065,42.187145 62.005455,43.635902 
	C61.777210,44.428993 61.544743,44.866810 61.205055,45.526421 
	C61.097828,45.748215 60.904102,46.034344 60.521358,46.024574 
	C60.138615,46.014801 59.711830,45.987572 59.785545,45.785488 
	C59.859257,45.583405 59.893394,45.154709 59.976852,44.798706 
	C60.024685,43.958183 59.989056,43.473667 59.953423,42.989147 
z"/>
<path fill="#48C3C5" opacity="1.000000" stroke="none" 
	d="
M60.042000,31.003561 
	C60.589855,31.174713 61.137714,31.345863 61.849785,31.761028 
	C61.543545,32.009750 61.073090,32.014454 60.251022,32.057343 
	C59.899406,32.095528 59.936001,32.069614 59.968987,31.809196 
	C60.015312,31.367041 60.028656,31.185301 60.042000,31.003561 
z"/>
<path fill="#48C3C5" opacity="1.000000" stroke="none" 
	d="
M72.239441,32.009155 
	C72.091705,31.682964 72.279251,31.419577 72.771294,31.106071 
	C72.991699,31.164572 72.993126,31.334093 72.991669,31.758039 
	C72.988777,32.012466 72.489212,32.011063 72.239441,32.009155 
z"/>
<path fill="#314A63" opacity="1.000000" stroke="none" 
	d="
M59.973534,33.744110 
	C59.800625,33.752026 59.646103,33.496696 59.621376,33.126289 
	C59.831421,33.167763 59.911674,33.324318 59.973534,33.744110 
z"/>
<path fill="#B23665" opacity="1.000000" stroke="none" 
	d="
M58.978878,47.016884 
	C58.987198,48.400368 58.995522,49.783855 59.007027,51.582279 
	C59.004814,54.045197 58.999416,56.093170 58.985329,58.581024 
	C55.589203,59.310410 52.201767,59.599926 48.409889,59.957809 
	C47.593449,60.063759 47.181458,60.101341 46.403133,60.149864 
	C46.036804,60.160805 45.989174,59.978836 45.974236,59.518661 
	C46.005299,55.064075 46.051304,51.069668 46.341412,47.063354 
	C46.585514,47.051445 47.075031,47.020325 47.395569,47.015121 
	C48.143486,47.006737 48.570866,47.003559 49.452217,47.000500 
	C52.930420,47.006039 55.954651,47.011463 58.978878,47.016884 
z"/>
<path fill="#C74971" opacity="1.000000" stroke="none" 
	d="
M45.800644,72.978134 
	C45.432095,72.287979 45.328491,71.499626 45.364185,70.330200 
	C45.690853,70.926071 45.878223,71.903008 45.800644,72.978134 
z"/>
<path fill="#DA446B" opacity="1.000000" stroke="none" 
	d="
M45.853043,62.911995 
	C45.480694,62.318626 45.332451,61.656773 45.359756,60.558384 
	C45.535305,60.121849 45.989174,59.978836 45.989174,59.978836 
	C45.989174,59.978836 46.036804,60.160805 46.103268,60.231636 
	C46.138870,61.149487 46.108013,61.996498 45.853043,62.911995 
z"/>
<path fill="#A1456F" opacity="1.000000" stroke="none" 
	d="
M59.272675,46.995796 
	C55.954651,47.011463 52.930420,47.006039 49.451160,46.728714 
	C48.991787,46.094486 48.987450,45.732159 49.230652,45.259850 
	C49.652016,45.100922 49.825836,45.051979 49.999660,45.003033 
	C50.488914,45.071400 50.978172,45.139767 51.889015,45.374352 
	C52.310608,45.540573 52.588257,45.581657 52.588257,45.581657 
	C52.588257,45.581657 52.815304,45.396912 52.815304,45.396912 
	C54.256729,45.282871 55.698158,45.168835 57.811317,45.050476 
	C58.483047,45.046154 58.960289,45.024082 59.003395,45.148193 
	C59.046505,45.272308 59.142010,45.517120 59.240837,45.588943 
	C59.339661,45.660767 59.711830,45.987572 59.711830,45.987572 
	C59.711830,45.987572 60.138615,46.014801 60.350533,46.050430 
	C60.562454,46.086056 60.424122,46.530312 60.287857,46.718273 
	C59.956547,46.929062 59.761509,46.951885 59.272675,46.995796 
z"/>
<path fill="#4169E0" opacity="1.000000" stroke="none" 
	d="
M18.996456,46.290314 
	C21.413107,45.683556 23.828131,45.421288 26.890079,45.409897 
	C28.348249,45.781052 29.159494,45.901333 30.085474,46.233410 
	C30.399742,46.710941 30.657566,46.895039 30.981312,47.397636 
	C30.998070,48.864952 31.007198,49.932133 31.008886,51.374432 
	C31.008205,52.499813 31.014963,53.250080 31.014383,54.417595 
	C31.015137,56.226639 31.023228,57.618431 31.017799,59.258156 
	C31.004282,59.506084 30.965115,60.001133 30.506809,60.000778 
	C26.375044,59.994339 22.701582,59.988258 19.028118,59.982182 
	C19.016726,59.233299 19.005333,58.484413 18.991251,56.989365 
	C18.986519,55.499298 18.984474,54.755402 18.982430,54.011505 
	C18.986166,52.615662 18.989904,51.219822 18.989925,49.161583 
	C18.986208,48.499184 18.982367,48.011497 18.982365,48.011497 
	C18.986521,47.552601 18.990675,47.093700 18.996456,46.290314 
z"/>
<path fill="#4979E3" opacity="1.000000" stroke="none" 
	d="
M18.789425,59.988655 
	C22.701582,59.988258 26.375044,59.994339 30.518700,60.334099 
	C30.997709,61.112408 31.006525,61.557037 31.005409,62.458366 
	C31.001230,66.025787 31.006981,69.136513 31.012733,72.247238 
	C30.225212,72.503349 29.437689,72.759460 28.325489,73.026810 
	C27.504778,73.293213 27.008741,73.548378 26.007050,73.907257 
	C25.501396,74.010971 25.007025,74.021339 25.007025,74.021332 
	C23.288940,74.015053 21.570854,74.008774 19.423084,74.006584 
	C18.993399,74.010681 18.990294,74.008133 18.987841,73.762268 
	C18.985388,73.516403 18.963535,73.017570 18.963535,73.017570 
	C18.962223,72.561417 18.960913,72.105255 18.961411,70.867226 
	C18.666542,66.723465 18.369867,63.361576 18.073191,59.999687 
	C18.073191,59.999687 18.550732,59.995132 18.789425,59.988655 
z"/>
<path fill="#5F9BF3" opacity="1.000000" stroke="none" 
	d="
M17.966640,59.833508 
	C18.369867,63.361576 18.666542,66.723465 18.945370,70.525452 
	C14.829969,68.275635 18.034620,64.185234 16.997343,60.452217 
	C17.284077,59.886639 17.572083,59.776985 17.966640,59.833508 
z"/>
<path fill="#5480EB" opacity="1.000000" stroke="none" 
	d="
M18.649792,54.057716 
	C18.984474,54.755402 18.986519,55.499298 18.985016,56.614922 
	C18.760031,56.025745 18.538593,55.064838 18.649792,54.057716 
z"/>
<path fill="#5480EB" opacity="1.000000" stroke="none" 
	d="
M18.733152,48.024864 
	C18.982367,48.011497 18.986208,48.499184 18.983923,48.742859 
	C18.551928,48.825912 18.122217,48.665295 17.692507,48.504677 
	C17.956318,48.349197 18.220129,48.193714 18.733152,48.024864 
z"/>
<path fill="#6EB7F6" opacity="1.000000" stroke="none" 
	d="
M19.002392,76.987030 
	C18.990891,78.701164 18.979389,80.415291 18.950146,82.556458 
	C15.237313,81.840652 17.715597,79.547615 18.231487,77.320648 
	C18.519825,76.967377 19.002392,76.987030 19.002392,76.987030 
z"/>
<path fill="#558EE1" opacity="1.000000" stroke="none" 
	d="
M18.999138,76.745613 
	C19.002392,76.987030 18.519825,76.967377 18.279831,76.945526 
	C18.154516,76.634331 18.338022,76.398544 18.795601,76.118835 
	C19.000849,76.021347 18.995884,76.504196 18.999138,76.745613 
z"/>
<path fill="#5E9BEA" opacity="1.000000" stroke="none" 
	d="
M18.753510,73.119568 
	C18.963535,73.017570 18.985388,73.516403 18.982731,73.766220 
	C18.980076,74.016029 18.488434,74.000488 18.243170,73.982483 
	C18.099792,73.658096 18.281652,73.410461 18.753510,73.119568 
z"/>
<path fill="#6BB9F6" opacity="1.000000" stroke="none" 
	d="
M17.086098,74.167877 
	C17.164562,73.997131 17.331406,73.993515 17.748344,73.999741 
	C17.723783,74.118073 17.449129,74.226540 17.086098,74.167877 
z"/>
<path fill="#406BD7" opacity="1.000000" stroke="none" 
	d="
M5.185233,36.905518 
	C5.022224,36.993832 5.013735,36.497646 5.020144,36.249668 
	C5.194983,36.167404 5.379494,36.321167 5.518732,36.508568 
	C5.547768,36.547649 5.409441,36.711075 5.185233,36.905518 
z"/>
<path fill="#3EC5BB" opacity="1.000000" stroke="none" 
	d="
M60.996376,16.577629 
	C60.681499,17.098854 60.416580,17.289722 59.705315,17.785957 
	C58.131023,18.007298 57.065632,18.010088 55.625122,18.008574 
	C54.499733,18.006969 53.749458,18.009670 52.599171,18.007412 
	C51.132256,18.007185 50.065353,18.011917 48.679131,17.992983 
	C47.580975,17.639654 46.802147,17.309992 46.018204,16.733967 
	C46.013096,16.487604 46.004627,15.994846 46.048500,15.614371 
	C46.336906,13.053350 48.914204,10.482348 45.047272,8.989976 
	C45.042156,8.549566 45.037041,8.109158 45.385281,7.331478 
	C46.494102,6.332705 47.249565,5.671204 48.253654,5.005773 
	C48.502281,5.001842 48.999531,4.993862 48.999531,4.993862 
	C52.360043,4.996244 55.720551,4.998626 59.538719,5.003652 
	C60.325512,8.724349 60.654644,12.442402 60.996376,16.577629 
z"/>
<path fill="#47A1C5" opacity="1.000000" stroke="none" 
	d="
M46.004627,15.994846 
	C46.004627,15.994846 46.013096,16.487604 46.010208,17.070446 
	C46.003925,18.101519 46.000526,18.549749 45.778648,18.987503 
	C45.560165,18.977026 45.124569,18.935673 44.850731,18.625235 
	C42.042763,18.200237 39.508636,18.085678 36.648842,17.947403 
	C35.888626,17.938578 35.454075,17.953470 35.019524,17.968363 
	C34.848354,17.917961 34.677189,17.867558 34.267063,17.694332 
	C37.386990,17.046341 40.745876,16.521170 44.807243,15.995310 
	C45.509731,15.994620 46.004627,15.994846 46.004627,15.994846 
z"/>
<path fill="#45C0C1" opacity="1.000000" stroke="none" 
	d="
M46.048500,15.614371 
	C46.004627,15.994846 45.509731,15.994620 45.262482,15.991928 
	C45.016453,13.948146 45.017673,11.907056 45.033085,9.427971 
	C48.914204,10.482348 46.336906,13.053350 46.048500,15.614371 
z"/>
<path fill="#49A3B3" opacity="1.000000" stroke="none" 
	d="
M43.660755,3.145084 
	C44.549370,3.187106 45.096634,3.312933 45.835800,3.904683 
	C46.014999,4.577206 46.002293,4.783808 45.743977,4.994209 
	C45.498371,4.998009 45.007195,5.007822 45.007195,5.007822 
	C44.255466,5.004311 43.503735,5.000800 42.376156,4.994663 
	C42.000599,4.690139 41.999790,4.388245 41.991619,3.862332 
	C42.430042,3.501838 42.874725,3.365364 43.660755,3.145084 
z"/>
<path fill="#45C0C1" opacity="1.000000" stroke="none" 
	d="
M45.008499,5.341184 
	C45.007195,5.007822 45.498371,4.998009 46.079987,4.998057 
	C47.109409,5.001972 47.557220,5.005838 48.005032,5.009703 
	C47.249565,5.671204 46.494102,6.332705 45.390068,7.001171 
	C45.030937,6.563604 45.020370,6.119075 45.008499,5.341184 
z"/>
<path fill="#5D97F0" opacity="1.000000" stroke="none" 
	d="
M25.095098,74.184891 
	C25.007025,74.021339 25.501396,74.010971 25.748508,74.015541 
	C25.724804,74.129555 25.453987,74.238998 25.095098,74.184891 
z"/>
<path fill="#53BAB9" opacity="1.000000" stroke="none" 
	d="
M48.253654,5.005773 
	C47.557220,5.005838 47.109409,5.001972 46.325592,4.994258 
	C46.002293,4.783808 46.014999,4.577206 46.068130,4.061779 
	C46.829739,3.723766 47.550915,3.694579 48.629379,3.721518 
	C48.990005,3.980359 48.993340,4.183074 48.998100,4.689826 
	C48.999531,4.993862 48.502281,5.001842 48.253654,5.005773 
z"/>
<path fill="#AB47E7" opacity="1.000000" stroke="none" 
	d="
M31.006943,32.031647 
	C29.956310,31.985731 28.905678,31.939816 27.477875,31.787424 
	C28.202410,31.201529 29.304117,30.722107 30.701521,30.371532 
	C30.999746,30.668640 31.002274,30.836899 30.997295,31.248905 
	C30.989790,31.492657 30.982080,31.980757 30.987968,31.992470 
	C30.993855,32.004185 31.006943,32.031647 31.006943,32.031647 
z"/>
<path fill="#8D50D6" opacity="1.000000" stroke="none" 
	d="
M31.010761,24.402363 
	C31.189470,24.002474 31.360552,24.001883 31.814680,24.400551 
	C32.082050,25.864511 32.066372,26.929209 31.789183,27.996408 
	C31.353325,27.999062 31.178978,27.999214 31.004631,27.999365 
	C31.004131,26.933464 31.003632,25.867561 31.010761,24.402363 
z"/>
<path fill="#944ECF" opacity="1.000000" stroke="none" 
	d="
M31.001381,28.332314 
	C31.178978,27.999214 31.353325,27.999062 31.887472,28.257904 
	C32.319416,28.688667 32.391556,28.860432 32.340260,29.366344 
	C32.170189,30.173069 32.123550,30.645649 31.810440,31.075165 
	C31.364250,31.023121 31.184525,31.014139 31.004799,31.005156 
	C31.002274,30.836899 30.999746,30.668640 30.991863,30.247742 
	C30.990381,29.551825 30.994255,29.108543 31.001381,28.332314 
z"/>
<path fill="#2F39A3" opacity="1.000000" stroke="none" 
	d="
M32.463692,29.032198 
	C32.391556,28.860432 32.319416,28.688667 32.148983,28.255405 
	C32.066372,26.929209 32.082050,25.864511 32.071301,24.401199 
	C32.100220,22.580446 32.155571,21.158304 32.314644,19.317059 
	C33.171112,18.754503 33.923859,18.611052 34.848064,18.217981 
	C35.454075,17.953470 35.888626,17.938578 36.917694,18.240028 
	C39.673031,18.706551 41.833847,18.856730 43.998856,19.358425 
	C44.352852,20.806667 44.702667,21.903391 45.092163,23.165646 
	C45.215118,23.551720 45.364727,23.709093 45.668968,24.196381 
	C45.831467,25.392082 45.905670,26.194698 45.881416,26.977322 
	C45.782959,26.957325 45.582241,26.947906 45.279816,27.068958 
	C44.649582,28.455072 44.321774,29.720133 43.661659,30.989239 
	C42.886082,30.995548 42.442810,30.997812 41.632286,30.999565 
	C40.172337,31.337208 39.079643,31.675360 37.587807,32.042950 
	C36.121559,32.051479 35.054455,32.030571 33.982368,31.999580 
	C33.977383,31.989500 33.954098,31.982603 33.967098,31.658447 
	C33.474628,30.566927 32.969162,29.799562 32.463692,29.032198 
z"/>
<path fill="#4F5CBB" opacity="1.000000" stroke="none" 
	d="
M29.970739,46.021610 
	C29.159494,45.901333 28.348249,45.781052 27.322838,45.450989 
	C28.270109,45.055801 29.431551,44.870407 31.042595,44.489563 
	C31.818056,44.534958 32.143913,44.775799 32.469727,45.385265 
	C32.320549,47.502438 32.171413,49.250988 31.770658,50.999619 
	C31.351467,50.999577 31.183897,50.999447 31.016325,50.999313 
	C31.007198,49.932133 30.998070,48.864952 30.882685,47.173061 
	C30.579609,46.263077 30.311045,46.087494 29.970739,46.021610 
z"/>
<path fill="#3C2AAE" opacity="1.000000" stroke="none" 
	d="
M31.014212,38.998363 
	C31.009060,36.963909 31.003906,34.929451 31.002848,32.463322 
	C31.006943,32.031647 30.993855,32.004185 31.263306,32.005001 
	C31.715975,32.002537 31.899191,31.999256 32.394176,32.002277 
	C33.121994,31.999918 33.538048,31.991261 33.954098,31.982603 
	C33.954098,31.982603 33.977383,31.989500 33.963066,32.203693 
	C33.948746,32.417885 33.934788,32.827881 33.691372,32.945839 
	C33.293156,33.378315 33.138355,33.692829 32.920639,34.379189 
	C32.742970,35.239716 32.628208,35.728401 32.365204,36.421986 
	C32.165989,37.141731 32.115017,37.656578 32.113602,38.366684 
	C32.163158,38.561943 32.154984,38.964764 31.869839,38.974792 
	C31.394535,38.989334 31.204374,38.993847 31.014212,38.998363 
z"/>
<path fill="#3B2BB0" opacity="1.000000" stroke="none" 
	d="
M31.008606,39.427181 
	C31.204374,38.993847 31.394535,38.989334 32.088570,39.265411 
	C32.711334,41.029308 32.830223,42.512615 32.922211,44.241993 
	C32.895302,44.488064 32.952568,44.979816 32.831329,44.981911 
	C32.710087,44.984009 32.469772,45.016644 32.469772,45.016640 
	C32.143913,44.775799 31.818056,44.534958 31.301216,44.243736 
	C31.074493,42.747566 31.038748,41.301785 31.008606,39.427181 
z"/>
<path fill="#391B5D" opacity="1.000000" stroke="none" 
	d="
M32.022282,50.999535 
	C32.171413,49.250988 32.320549,47.502438 32.469727,45.385269 
	C32.469772,45.016644 32.710087,44.984009 33.095306,44.983932 
	C33.655987,44.974834 33.831455,44.965816 34.004227,44.994537 
	C34.001534,45.032272 33.991272,45.107243 34.084713,45.475540 
	C36.451538,46.227722 38.724926,46.611610 41.373539,46.996307 
	C42.829933,46.340981 43.911095,45.684845 45.236641,45.001400 
	C45.481026,44.974087 45.972813,44.978310 45.989120,45.236111 
	C46.012581,45.665619 46.019737,45.837330 46.014847,46.277557 
	C46.034306,46.722466 46.065807,46.898865 46.097309,47.075260 
	C46.051304,51.069668 46.005299,55.064075 45.974236,59.518661 
	C45.989174,59.978836 45.535305,60.121849 45.316704,60.216553 
	C43.346779,59.893295 41.595455,59.475334 39.027252,59.047043 
	C37.133495,59.057270 36.056614,59.077835 34.979736,59.098396 
	C34.337521,59.067352 33.695305,59.036308 32.638775,58.974297 
	C32.224461,58.943333 32.043640,58.968544 32.067490,58.555588 
	C32.070282,56.762108 32.049217,55.381577 32.053440,53.626240 
	C32.059914,52.500797 32.041100,51.750168 32.022282,50.999535 
z"/>
<path fill="#6768BB" opacity="1.000000" stroke="none" 
	d="
M31.211849,72.206268 
	C31.006981,69.136513 31.001230,66.025787 31.265924,62.458542 
	C31.710157,62.003086 31.883947,62.004154 32.057735,62.005222 
	C32.050167,65.073021 32.042603,68.140823 31.925095,71.664986 
	C31.815153,72.121346 31.410963,72.165291 31.211849,72.206268 
z"/>
<path fill="#5D2C6C" opacity="1.000000" stroke="none" 
	d="
M35.050900,59.432884 
	C36.056614,59.077835 37.133495,59.057270 38.613689,59.064796 
	C38.129219,61.688347 36.770313,61.563290 35.050900,59.432884 
z"/>
<path fill="#6269BD" opacity="1.000000" stroke="none" 
	d="
M32.086269,61.622322 
	C31.883947,62.004154 31.710157,62.003086 31.275856,62.001846 
	C31.006525,61.557037 30.997709,61.112408 30.977005,60.334454 
	C30.965115,60.001133 31.004282,59.506084 31.270815,59.250351 
	C31.706114,58.985924 31.874878,58.977234 32.043640,58.968544 
	C32.043640,58.968544 32.224461,58.943333 32.317825,58.955486 
	C32.312397,59.724899 32.213600,60.482159 32.086269,61.622322 
z"/>
<path fill="#3CA8BD" opacity="1.000000" stroke="none" 
	d="
M45.997128,18.997978 
	C46.000526,18.549749 46.003925,18.101519 46.015320,17.316809 
	C46.802147,17.309992 47.580975,17.639654 48.741333,18.337507 
	C50.806332,20.662664 52.158749,20.768742 52.999187,18.012373 
	C53.749458,18.009670 54.499733,18.006969 55.669743,18.389618 
	C57.963867,20.873383 55.271828,25.434343 59.986359,26.001146 
	C59.994366,27.390736 60.002377,28.780323 60.026192,30.586737 
	C60.028656,31.185301 60.015312,31.367041 59.966881,31.820637 
	C59.931789,32.092495 59.453678,32.097054 59.084473,31.811836 
	C58.150330,31.649637 57.585392,31.772655 57.020458,31.895674 
	C54.317947,31.940844 51.615437,31.986015 48.301010,31.756121 
	C47.145004,31.307095 46.600918,31.133135 46.007534,30.558006 
	C45.832905,29.087194 45.707573,28.017551 45.582237,26.947906 
	C45.582241,26.947906 45.782959,26.957325 46.150829,26.777225 
	C46.675854,25.730137 46.833008,24.863152 46.992973,23.607903 
	C46.653728,21.813362 46.311668,20.407084 45.976692,18.997379 
	C45.983780,18.993950 45.997128,18.997978 45.997128,18.997978 
z"/>
<path fill="#39ABBA" opacity="1.000000" stroke="none" 
	d="
M59.991642,25.557209 
	C55.271828,25.434343 57.963867,20.873383 56.044861,18.393925 
	C57.065632,18.010088 58.131023,18.007298 59.595757,18.008606 
	C59.995712,20.379560 59.996319,22.746418 59.991642,25.557209 
z"/>
<path fill="#0B063B" opacity="1.000000" stroke="none" 
	d="
M45.972813,44.978310 
	C45.972813,44.978310 45.481026,44.974087 44.823135,44.999405 
	C42.790936,45.066250 41.416622,45.107769 39.611534,45.113106 
	C37.450928,45.087025 35.721100,45.097134 33.991272,45.107243 
	C33.991272,45.107243 34.001534,45.032272 33.884163,44.779537 
	C33.553665,44.258339 33.281105,44.081379 32.949112,43.995922 
	C32.830223,42.512615 32.711334,41.029308 32.373714,39.255383 
	C32.154984,38.964764 32.163158,38.561943 32.306221,38.164066 
	C32.470669,37.249821 32.492058,36.733456 32.513447,36.217087 
	C32.628208,35.728401 32.742970,35.239716 33.155067,34.252697 
	C33.613197,33.445538 33.773991,33.136707 33.934788,32.827881 
	C33.934788,32.827881 33.948746,32.417885 33.968048,32.213776 
	C35.054455,32.030571 36.121559,32.051479 37.988548,32.082050 
	C39.859924,32.075413 40.931408,32.059109 42.380966,32.069221 
	C43.518452,32.090580 44.277866,32.085522 45.221981,32.121979 
	C45.406685,32.163498 45.784855,32.144836 45.825859,32.201454 
	C45.866867,32.258072 45.921555,32.386745 45.921555,32.386745 
	C46.130379,36.320118 46.339203,40.253490 46.754814,44.583527 
	C46.961597,44.980186 47.021969,45.032406 46.760788,44.992180 
	C46.324009,44.960743 46.148411,44.969528 45.972813,44.978310 
z"/>
<path fill="#A6396D" opacity="1.000000" stroke="none" 
	d="
M48.983112,45.369831 
	C48.987450,45.732159 48.991787,46.094486 48.997185,46.728600 
	C48.570866,47.003559 48.143486,47.006737 47.376339,46.766762 
	C47.036572,46.523609 47.018330,46.026337 47.025871,45.777878 
	C47.033409,45.529423 47.021969,45.032406 47.021969,45.032406 
	C47.021969,45.032406 46.961597,44.980186 46.948654,44.940186 
	C47.112503,44.938869 47.289291,44.977554 47.987106,45.086464 
	C48.666462,45.227730 48.824787,45.298779 48.983112,45.369831 
z"/>
<path fill="#314A63" opacity="1.000000" stroke="none" 
	d="
M59.737640,43.101177 
	C59.989056,43.473667 60.024685,43.958183 59.776588,44.862003 
	C59.492863,45.281303 59.142010,45.517120 59.142010,45.517120 
	C59.142010,45.517120 59.046505,45.272308 59.017544,44.894348 
	C58.986126,44.347084 58.983665,44.177773 58.981201,44.008465 
	C59.079632,43.687759 59.259853,43.422676 59.737640,43.101177 
z"/>
<path fill="#453347" opacity="1.000000" stroke="none" 
	d="
M49.230652,45.259850 
	C48.824787,45.298779 48.666462,45.227730 48.258549,45.083221 
	C48.576694,44.855392 49.144428,44.701027 49.855911,44.774845 
	C49.825836,45.051979 49.652016,45.100922 49.230652,45.259850 
z"/>
<path fill="#4D94A2" opacity="1.000000" stroke="none" 
	d="
M46.056831,30.959173 
	C46.600918,31.133135 47.145004,31.307095 47.852242,31.722328 
	C47.545792,32.037563 47.076187,32.111523 46.264069,32.286118 
	C45.921555,32.386745 45.866867,32.258072 45.900642,31.906080 
	C45.975224,31.355782 46.016026,31.157476 46.056831,30.959173 
z"/>
<path fill="#43A5B3" opacity="1.000000" stroke="none" 
	d="
M57.344658,31.970242 
	C57.585392,31.772655 58.150330,31.649637 58.854156,31.747740 
	C58.551655,31.994175 58.110252,32.019489 57.344658,31.970242 
z"/>
<path fill="#B23665" opacity="1.000000" stroke="none" 
	d="
M52.657928,45.335686 
	C52.815304,45.396912 52.588257,45.581657 52.588257,45.581657 
	C52.588257,45.581657 52.310608,45.540573 52.247631,45.467247 
	C52.184654,45.393925 52.500549,45.274464 52.657928,45.335686 
z"/>
<path fill="#453347" opacity="1.000000" stroke="none" 
	d="
M58.766312,44.113983 
	C58.983665,44.177773 58.986126,44.347084 58.974434,44.770237 
	C58.960289,45.024082 58.483047,45.046154 58.245857,45.018768 
	C58.101162,44.671898 58.282078,44.414604 58.766312,44.113983 
z"/>
<path fill="#B23665" opacity="1.000000" stroke="none" 
	d="
M59.240837,45.588943 
	C59.142010,45.517120 59.492863,45.281303 59.693130,45.218006 
	C59.893394,45.154709 59.859257,45.583405 59.785545,45.785488 
	C59.711830,45.987572 59.339661,45.660767 59.240837,45.588943 
z"/>
<path fill="#89376F" opacity="1.000000" stroke="none" 
	d="
M47.018330,46.026337 
	C47.018330,46.026337 47.036572,46.523609 47.055801,46.771965 
	C47.075031,47.020325 46.585514,47.051445 46.341412,47.063354 
	C46.065807,46.898865 46.034306,46.722466 46.262444,46.277649 
	C46.522079,46.009232 47.018330,46.026337 47.018330,46.026337 
z"/>
<path fill="#4F5CBB" opacity="1.000000" stroke="none" 
	d="
M32.067490,58.555588 
	C31.874878,58.977234 31.706114,58.985924 31.284332,59.002419 
	C31.023228,57.618431 31.015137,56.226639 31.265821,54.417595 
	C31.692450,54.000580 31.860300,54.000816 32.028152,54.001049 
	C32.049217,55.381577 32.070282,56.762108 32.067490,58.555588 
z"/>
<path fill="#525BBD" opacity="1.000000" stroke="none" 
	d="
M32.053440,53.626240 
	C31.860300,54.000816 31.692450,54.000580 31.273159,54.000343 
	C31.014963,53.250080 31.008205,52.499813 31.008886,51.374432 
	C31.183897,50.999447 31.351467,50.999577 31.770658,50.999619 
	C32.041100,51.750168 32.059914,52.500797 32.053440,53.626240 
z"/>
<path fill="#4C5DE6" opacity="1.000000" stroke="none" 
	d="
M30.085474,46.233410 
	C30.311045,46.087494 30.579609,46.263077 30.875053,46.772926 
	C30.657566,46.895039 30.399742,46.710941 30.085474,46.233410 
z"/>
<path fill="#39ABBA" opacity="1.000000" stroke="none" 
	d="
M52.599171,18.007412 
	C52.158749,20.768742 50.806332,20.662664 49.060658,18.361174 
	C50.065353,18.011917 51.132256,18.007185 52.599171,18.007412 
z"/>
<path fill="#254AA0" opacity="1.000000" stroke="none" 
	d="
M43.994667,19.006908 
	C41.833847,18.856730 39.673031,18.706551 37.243359,18.263746 
	C39.508636,18.085678 42.042763,18.200237 44.568119,18.649105 
	C44.371120,18.991245 44.182896,18.999077 43.994667,19.006908 
z"/>
<path fill="#293D9B" opacity="1.000000" stroke="none" 
	d="
M43.998856,19.358425 
	C44.182896,18.999077 44.371120,18.991245 44.841957,18.959543 
	C45.124569,18.935673 45.560165,18.977026 45.778648,18.987503 
	C45.997128,18.997978 45.983780,18.993950 45.946465,19.399136 
	C45.806370,20.870026 45.703594,21.935728 45.463734,23.000992 
	C45.326649,23.000553 45.052479,23.000114 45.052483,23.000114 
	C44.702667,21.903391 44.352852,20.806667 43.998856,19.358425 
z"/>
<path fill="#5644BC" opacity="1.000000" stroke="none" 
	d="
M32.082409,31.995979 
	C31.899191,31.999256 31.715975,32.002537 31.257420,31.993286 
	C30.982080,31.980757 30.989790,31.492657 30.997295,31.248905 
	C31.184525,31.014139 31.364250,31.023121 31.812576,31.294006 
	C32.081177,31.555914 32.082409,31.995979 32.082409,31.995979 
z"/>
<path fill="#323D92" opacity="1.000000" stroke="none" 
	d="
M32.394176,32.002277 
	C32.082409,31.995979 32.081177,31.555914 32.079041,31.337070 
	C32.123550,30.645649 32.170189,30.173069 32.340260,29.366344 
	C32.969162,29.799562 33.474628,30.566927 33.967098,31.658447 
	C33.538048,31.991261 33.121994,31.999918 32.394176,32.002277 
z"/>
<path fill="#2C3C9C" opacity="1.000000" stroke="none" 
	d="
M46.007534,30.558006 
	C46.016026,31.157476 45.975224,31.355782 45.859634,31.849463 
	C45.784855,32.144836 45.406685,32.163498 45.109970,31.885159 
	C44.540161,31.399612 44.267063,31.192404 43.993969,30.985195 
	C44.321774,29.720133 44.649582,28.455072 45.279812,27.068958 
	C45.707573,28.017551 45.832905,29.087194 46.007534,30.558006 
z"/>
<path fill="#363B93" opacity="1.000000" stroke="none" 
	d="
M42.002895,32.042809 
	C40.931408,32.059109 39.859924,32.075413 38.387695,32.052612 
	C39.079643,31.675360 40.172337,31.337208 41.632927,31.260250 
	C42.001518,31.695234 42.002209,31.869022 42.002895,32.042809 
z"/>
<path fill="#323D92" opacity="1.000000" stroke="none" 
	d="
M42.380966,32.069221 
	C42.002209,31.869022 42.001518,31.695234 42.000183,31.260761 
	C42.442810,30.997812 42.886082,30.995548 43.661659,30.989239 
	C44.267063,31.192404 44.540161,31.399612 44.925266,31.843643 
	C44.277866,32.085522 43.518452,32.090580 42.380966,32.069221 
z"/>
<path fill="#4697C2" opacity="1.000000" stroke="none" 
	d="
M46.990158,23.996164 
	C46.833008,24.863152 46.675854,25.730137 46.249287,26.797220 
	C45.905670,26.194698 45.831467,25.392082 45.765392,24.234943 
	C45.773521,23.880424 45.950581,23.972351 46.210400,23.981537 
	C46.643536,23.992538 46.816849,23.994350 46.990158,23.996164 
z"/>
<path fill="#2C3C9C" opacity="1.000000" stroke="none" 
	d="
M45.092163,23.165646 
	C45.052479,23.000114 45.326649,23.000553 45.574905,23.235947 
	C45.865635,23.638344 45.908108,23.805347 45.950581,23.972351 
	C45.950581,23.972351 45.773521,23.880424 45.677097,23.841862 
	C45.364727,23.709093 45.215118,23.551720 45.092163,23.165646 
z"/>
<path fill="#3B2BB0" opacity="1.000000" stroke="none" 
	d="
M32.365204,36.421986 
	C32.492058,36.733456 32.470669,37.249821 32.256660,37.968807 
	C32.115017,37.656578 32.165989,37.141731 32.365204,36.421986 
z"/>
<path fill="#0C0349" opacity="1.000000" stroke="none" 
	d="
M33.691372,32.945839 
	C33.773991,33.136707 33.613197,33.445538 33.217976,33.880852 
	C33.138355,33.692829 33.293156,33.378315 33.691372,32.945839 
z"/>
<path fill="#0C0349" opacity="1.000000" stroke="none" 
	d="
M32.922207,44.241993 
	C33.281105,44.081379 33.553665,44.258339 33.886856,44.741798 
	C33.831455,44.965816 33.655987,44.974834 33.216545,44.981834 
	C32.952568,44.979816 32.895302,44.488064 32.922207,44.241993 
z"/>
<path fill="#3F2664" opacity="1.000000" stroke="none" 
	d="
M34.084713,45.475540 
	C35.721100,45.097134 37.450928,45.087025 39.719109,45.347542 
	C40.504406,46.077274 40.751358,46.536385 40.998310,46.995495 
	C38.724926,46.611610 36.451538,46.227722 34.084713,45.475540 
z"/>
<path fill="#422462" opacity="1.000000" stroke="none" 
	d="
M41.373539,46.996307 
	C40.751358,46.536385 40.504406,46.077274 40.149883,45.383728 
	C41.416622,45.107769 42.790936,45.066250 44.578751,45.026718 
	C43.911095,45.684845 42.829933,46.340981 41.373539,46.996307 
z"/>
<path fill="#774765" opacity="1.000000" stroke="none" 
	d="
M47.025871,45.777878 
	C47.018330,46.026337 46.522079,46.009232 46.274487,46.009140 
	C46.019737,45.837330 46.012581,45.665619 45.989120,45.236111 
	C46.148411,44.969528 46.324009,44.960743 46.760788,44.992180 
	C47.021969,45.032406 47.033409,45.529423 47.025871,45.777878 
z"/>
<path fill="#4D93C3" opacity="1.000000" stroke="none" 
	d="
M46.210400,23.981537 
	C45.908108,23.805347 45.865635,23.638344 45.711990,23.236385 
	C45.703594,21.935728 45.806370,20.870026 45.939377,19.402565 
	C46.311668,20.407084 46.653728,21.813362 46.992973,23.607903 
	C46.816849,23.994350 46.643536,23.992538 46.210400,23.981537 
z"/>
</svg>